HIERARCHY
ROOT hips
{
  OFFSET 0 11.86390953 0.3628582958
  CHANNELS 6 Xposition Yposition Zposition Yrotation Xrotation Zrotation
  JOINT spine
  {
    OFFSET 0 0.05383551117999996 0
    CHANNELS 3 Yrotation Xrotation Zrotation
    JOINT chest
    {
      OFFSET 0 0.6394558760401424 0
      CHANNELS 3 Yrotation Xrotation Zrotation
      JOINT neck
      {
        OFFSET 0 2.720089088562982 0
        CHANNELS 3 Yrotation Xrotation Zrotation
        JOINT head
        {
          OFFSET 0 0.37880844870545777 0
          CHANNELS 3 Yrotation Xrotation Zrotation
          JOINT rightEye
          {
            OFFSET -0.42867780714 0.7547055649100001 0.7381831347
            CHANNELS 3 Yrotation Xrotation Zrotation
            End Site
            {
              OFFSET -0.42867780714 0.7547055649100001 0.7381831347
            }
          }
          JOINT leftEye
          {
            OFFSET 0.428676479 0.7547055559999993 0.7381844503
            CHANNELS 3 Yrotation Xrotation Zrotation
            End Site
            {
              OFFSET 0.428676479 0.7547055559999993 0.7381844503
            }
          }
          JOINT jaw
          {
            OFFSET -0.18933892286100001 1.5626303011000007 1.137441874206
            CHANNELS 3 Yrotation Xrotation Zrotation
            End Site
            {
              OFFSET -0.18933892286100001 1.5626303011000007 1.137441874206
            }
          }
        }
      }
      JOINT rightShoulder
      {
        OFFSET -0.6795351508 2.0665205 0
        CHANNELS 3 Yrotation Xrotation Zrotation
        JOINT rightUpperArm
        {
          OFFSET -0.7287400483531672 0 0
          CHANNELS 3 Yrotation Xrotation Zrotation
          JOINT rightLowerArm
          {
            OFFSET -1.9872982039174532 0 0
            CHANNELS 3 Yrotation Xrotation Zrotation
            JOINT rightHand
            {
              OFFSET -2.6451847532219275 0 0
              CHANNELS 3 Yrotation Xrotation Zrotation
              JOINT rightLittleProximal
              {
                OFFSET -0.8008804099999995 -0.09592044000000044 -0.26183688629999996
                CHANNELS 3 Yrotation Xrotation Zrotation
                JOINT rightLittleIntermediate
                {
                  OFFSET -0.2473955153999997 -0.02541697026000067 0.002370178700999967
                  CHANNELS 3 Yrotation Xrotation Zrotation
                  JOINT rightLittleDistal
                  {
                    OFFSET -0.163687229200001 -0.015790700860001117 -0.0004274845300000635
                    CHANNELS 3 Yrotation Xrotation Zrotation
                    End Site
                    {
                      OFFSET -0.163687229200001 -0.015790700860001117 -0.0004274845300000635
                    }
                  }
                }
              }
              JOINT rightRingProximal
              {
                OFFSET -0.8393382799999985 -0.06223833561000025 -0.09213143500000005
                CHANNELS 3 Yrotation Xrotation Zrotation
                JOINT rightRingIntermediate
                {
                  OFFSET -0.3284497260000011 -0.03264224524000103 0.009408593183000052
                  CHANNELS 3 Yrotation Xrotation Zrotation
                  JOINT rightRingDistal
                  {
                    OFFSET -0.19447660429999902 -0.021730899850000318 0.003074347969000052
                    CHANNELS 3 Yrotation Xrotation Zrotation
                    End Site
                    {
                      OFFSET -0.19447660429999902 -0.021730899850000318 0.003074347969000052
                    }
                  }
                }
              }
              JOINT rightMiddleProximal
              {
                OFFSET -0.8473005199999989 -0.06735503500000095 0.10541820299999995
                CHANNELS 3 Yrotation Xrotation Zrotation
                JOINT rightMiddleIntermediate
                {
                  OFFSET -0.3450455799999995 -0.02481901642000084 0.019012570390000032
                  CHANNELS 3 Yrotation Xrotation Zrotation
                  JOINT rightMiddleDistal
                  {
                    OFFSET -0.23542332000000088 -0.025003910029999243 0.0075583457949999905
                    CHANNELS 3 Yrotation Xrotation Zrotation
                    End Site
                    {
                      OFFSET -0.23542332000000088 -0.025003910029999243 0.0075583457949999905
                    }
                  }
                }
              }
              JOINT rightIndexProximal
              {
                OFFSET -0.8008568281999987 -0.09897839600000169 0.29462796
                CHANNELS 3 Yrotation Xrotation Zrotation
                JOINT rightIndexIntermediate
                {
                  OFFSET -0.30524754480000016 -0.024634122809999992 0.02743375304999998
                  CHANNELS 3 Yrotation Xrotation Zrotation
                  JOINT rightIndexDistal
                  {
                    OFFSET -0.23067378950000017 -0.016876459159999913 0.008484125099999983
                    CHANNELS 3 Yrotation Xrotation Zrotation
                    End Site
                    {
                      OFFSET -0.23067378950000017 -0.016876459159999913 0.008484125099999983
                    }
                  }
                }
              }
              JOINT rightThumbProximal
              {
                OFFSET -0.25574064999999935 -0.12833189930000155 0.22385698609999993
                CHANNELS 3 Yrotation Xrotation Zrotation
                JOINT rightThumbIntermediate
                {
                  OFFSET -0.22791743260000086 -0.07103586192999978 0.27385039
                  CHANNELS 3 Yrotation Xrotation Zrotation
                  JOINT rightThumbDistal
                  {
                    OFFSET -0.13610267659999975 -0.03369390969999997 0.14246511509999996
                    CHANNELS 3 Yrotation Xrotation Zrotation
                    End Site
                    {
                      OFFSET -0.13610267659999975 -0.03369390969999997 0.14246511509999996
                    }
                  }
                }
              }
            }
          }
        }
      }
      JOINT leftShoulder
      {
        OFFSET 0.6795338396 2.0665205 0
        CHANNELS 3 Yrotation Xrotation Zrotation
        JOINT leftUpperArm
        {
          OFFSET 0.7287383950230443 0 0
          CHANNELS 3 Yrotation Xrotation Zrotation
          JOINT leftLowerArm
          {
            OFFSET 1.9872997282019604 0 0
            CHANNELS 3 Yrotation Xrotation Zrotation
            JOINT leftHand
            {
              OFFSET 2.6451820781302327 0 0
              CHANNELS 3 Yrotation Xrotation Zrotation
              JOINT leftLittleProximal
              {
                OFFSET 0.8008804099999995 -0.09592306899999814 -0.2618342639000001
                CHANNELS 3 Yrotation Xrotation Zrotation
                JOINT leftLittleIntermediate
                {
                  OFFSET 0.2473981400000007 -0.02542352681000093 0.0023609995859999455
                  CHANNELS 3 Yrotation Xrotation Zrotation
                  JOINT leftLittleDistal
                  {
                    OFFSET 0.1636846068000002 -0.015794634789999318 -0.00043272972159996703
                    CHANNELS 3 Yrotation Xrotation Zrotation
                    End Site
                    {
                      OFFSET 0.1636846068000002 -0.015794634789999318 -0.00043272972159996703
                    }
                  }
                }
              }
              JOINT leftRingProximal
              {
                OFFSET 0.8393409199999996 -0.062242267999998324 -0.0921281570000001
                CHANNELS 3 Yrotation Xrotation Zrotation
                JOINT leftRingIntermediate
                {
                  OFFSET 0.3284471036000003 -0.03264224524000103 0.009405970574000042
                  CHANNELS 3 Yrotation Xrotation Zrotation
                  JOINT leftRingDistal
                  {
                    OFFSET 0.1944779099999996 -0.021732211159998904 0.003073036670000001
                    CHANNELS 3 Yrotation Xrotation Zrotation
                    End Site
                    {
                      OFFSET 0.1944779099999996 -0.021732211159998904 0.003073036670000001
                    }
                  }
                }
              }
              JOINT leftMiddleProximal
              {
                OFFSET 0.8473005200000001 -0.06736028199999788 0.1054214809999999
                CHANNELS 3 Yrotation Xrotation Zrotation
                JOINT leftMiddleIntermediate
                {
                  OFFSET 0.3450455799999995 -0.024824261000000014 0.019013225990000007
                  CHANNELS 3 Yrotation Xrotation Zrotation
                  JOINT leftMiddleDistal
                  {
                    OFFSET 0.2354259489999998 -0.025005222000000327 0.0075590014499999705
                    CHANNELS 3 Yrotation Xrotation Zrotation
                    End Site
                    {
                      OFFSET 0.2354259489999998 -0.025005222000000327 0.0075590014499999705
                    }
                  }
                }
              }
              JOINT leftIndexProximal
              {
                OFFSET 0.8008594516999996 -0.09898495199999946 0.29463124239999994
                CHANNELS 3 Yrotation Xrotation Zrotation
                JOINT leftIndexIntermediate
                {
                  OFFSET 0.30524754480000016 -0.024632811499998963 0.02743047472
                  CHANNELS 3 Yrotation Xrotation Zrotation
                  JOINT leftIndexDistal
                  {
                    OFFSET 0.23067378950000017 -0.016876459159999913 0.008481502700000004
                    CHANNELS 3 Yrotation Xrotation Zrotation
                    End Site
                    {
                      OFFSET 0.23067378950000017 -0.016876459159999913 0.008481502700000004
                    }
                  }
                }
              }
              JOINT leftThumbProximal
              {
                OFFSET 0.25574326469999953 -0.12833321050000013 0.22385764169999997
                CHANNELS 3 Yrotation Xrotation Zrotation
                JOINT leftThumbIntermediate
                {
                  OFFSET 0.22804987480000094 -0.07138466829999968 0.273648441
                  CHANNELS 3 Yrotation Xrotation Zrotation
                  JOINT leftThumbDistal
                  {
                    OFFSET 0.13614857189999907 -0.033867001519998885 0.14238119169999996
                    CHANNELS 3 Yrotation Xrotation Zrotation
                    End Site
                    {
                      OFFSET 0.13614857189999907 -0.033867001519998885 0.14238119169999996
                    }
                  }
                }
              }
            }
          }
        }
      }
    }
  }
  JOINT rightUpperLeg
  {
    OFFSET -0.9749898906000001 -1.8495733739999998 0
    CHANNELS 3 Yrotation Xrotation Zrotation
    JOINT rightLowerLeg
    {
      OFFSET 0 -4.1566544686813165 0
      CHANNELS 3 Yrotation Xrotation Zrotation
      JOINT rightFoot
      {
        OFFSET 0.14539718599999998 -4.225553926 -0.3666210900000001
        CHANNELS 3 Yrotation Xrotation Zrotation
        JOINT rightToes
        {
          OFFSET 0.1706738473 -0.9584117400000015 1.0093348617
          CHANNELS 3 Yrotation Xrotation Zrotation
          End Site
          {
            OFFSET 0.1706738473 -0.9584117400000015 1.0093348617
          }
        }
      }
    }
  }
  JOINT leftUpperLeg
  {
    OFFSET 0.9749898906000001 -1.8495733739999998 0
    CHANNELS 3 Yrotation Xrotation Zrotation
    JOINT leftLowerLeg
    {
      OFFSET 0 -4.156653488267941 0
      CHANNELS 3 Yrotation Xrotation Zrotation
      JOINT leftFoot
      {
        OFFSET -0.14537357999999995 -4.225555399999999 -0.36661124279999996
        CHANNELS 3 Yrotation Xrotation Zrotation
        JOINT leftToes
        {
          OFFSET -0.17066467000000002 -0.9584157000000019 1.0093348617
          CHANNELS 3 Yrotation Xrotation Zrotation
          End Site
          {
            OFFSET -0.17066467000000002 -0.9584157000000019 1.0093348617
          }
        }
      }
    }
  }
}
MOTION
Frames: 4
Frame Time: 0.03333333333333333
0.32769590616226196 0.846302223845214 2.288137435913086 4.703103153092713 6.711607806641764 1.6873705574389994 -0.2304938579732035 -1.6791485570576576 -1.6643454718886042 -0.8588224227132316 2.9292792093040645 0.15139069390326926 -6.105184763819844 -0.620536898369112 -1.4005525554692482 2.8980073139290226 -47.54472968631584 -19.663592399121256 0 0 0 0 0 0 0 0 0 13.905526122709658 -0.6540687452989251 20.704064382420956 8.502655070037871 -44.025673001023186 39.50268895848006 86.36731288354056 0.693285600593669 -0.7386183406716593 17.267968875011707 6.896377444240338 -28.09633168503675 -15.255695188399894 7.079639173840699 47.12280976987335 -2.5438727412901883 0.449218886948967 32.830424089891146 -0.5397443521075831 -0.8509445736696959 27.08747979701757 -13.45167359907161 6.986008269476976 52.21318335665076 -3.0088934347376 1.1380132606112037 33.4611904856271 -0.8133654698620035 -0.008557876881248984 29.812365395869612 -12.679782699056162 5.1246896495488174 43.71675241589009 -4.585295337109284 1.685950516164034 49.76740146154135 -3.5104857693365834 1.295745038182788 42.255216530349806 -3.3144664336796 -2.161341512498689 34.40984101381286 -3.9168040607021295 1.118752340677877 38.68099528194238 -1.4564997634687666 -0.012130321841306009 29.381928223654928 0.9464152384387593 -27.76054739547602 -11.348083425004639 -7.844198691118563 -1.12037300572306 -7.892117857626359 -28.123337507650493 -1.8331071044715899 -1.2381278816085066 0.3184199311959348 0.11698461319796595 1.9391030746892841 16.1383845058166 -53.74205763585114 -98.71609246816207 -116.24991921971842 1.0674030239569947 0.6639318389850344 -10.762454629466779 42.810242824604934 -6.38854216115374 15.117729821751638 8.982929707650259 -51.23737582231172 1.986782428964342 0.36917310512301765 -25.567061977682116 2.441868049348391 0.44612898580564353 -18.874943677086396 11.37183088118263 3.410561806391071 -38.64295072886681 3.2055586387336854 1.3305375546243199 -36.85142998186594 2.70356967587053 1.2409113294846532 -34.852438130756575 10.755635460954855 2.707728088474227 -33.969816133279274 3.689118565328247 0.8620085284598393 -34.793947146829126 2.271677856435496 0.49444150317055097 -23.766931467699546 7.675390649186477 0.7420321637764685 -26.898699379092992 3.881653822954334 1.072573738444531 -37.63567376958174 1.912934073583936 0.3541623447499111 -24.66684914786641 -1.1409023084058114 -9.992313814086204 10.22139754185401 27.022192137058717 2.1130462268758015 -6.629481271700983 -9.26703234045394 -3.94569696378326 -9.093254045387319 -3.1682888316926996 -5.540957169453662 1.024191547179934 -10.02967962994414 6.967993004081585 -6.5637555589243455 -4.91918069697635 17.324253073902067 3.951143086965838 -0.19709899141319714 4.033332336687007 2.114081960570326 11.689670672465235 -5.813950272116715 -2.853771954161089 0.15464146210816757 7.182981959779414 2.8550480890960674 -0.08456430681289631 31.439157863619723 -0.15186425677613313 1.0198535905768829 -15.091337827630031 -4.051644395030187
0.30065348744392395 0.8476850516040031 2.2857825756073 5.121620523433944 6.967781843079592 1.8418979214492748 -0.20025870496740744 -1.995875834079845 -1.6869738854020373 -0.7544985765696809 3.3336789146262222 0.0556266119377263 -6.082904344723936 -1.5217145188767027 -1.2544371185753393 3.1552347817160373 -47.943597033674195 -19.712514743928093 0 0 0 0 0 0 0 0 0 13.996676338798451 -0.6536219257837514 20.547778749218512 7.782887530218312 -44.220661003725326 39.983257020474085 86.57116664233386 0.6959139224582502 -0.7387840913216289 17.850809414522413 6.87938939213658 -28.007854888487785 -14.937036031847963 6.870559353885609 47.5315863479829 -2.6094256356847914 0.48102503140659003 33.65677308585451 -0.6242925495672572 -0.8518607739447651 27.914489211865806 -13.444165525007488 7.029271570657162 52.51227057342151 -3.04174086714077 1.1657690747265306 33.95408803023818 -0.856074418663655 0.003518189005647104 30.305279916114483 -12.754068366589074 5.209673013682108 43.82821704367818 -4.619636233718185 1.7245501759207478 50.35992975449254 -3.548475826766709 1.3306778247699842 42.84701579538233 -3.1903378278018364 -2.25131976844134 34.50897554071261 -3.9457497151523726 1.1420012796358137 39.10199489498047 -1.4936574144797778 -0.00135356067016903 29.80344563823566 1.0060308933294981 -28.104171279391288 -11.508832317233782 -7.790389259938044 -1.1512642306780958 -8.085512930873909 -28.65231985374328 -2.225028669226108 -0.9610696005981287 0.5630182946798317 0.06490011785622715 2.5660269157693714 17.01866772988399 -53.83996092493488 -100.54087539936542 -115.86145184754051 1.0629026457450264 0.6661588420408574 -11.737166480480745 42.88287403972523 -7.124111066390835 15.167649883439179 9.08553093732692 -51.4130157008795 1.9540189344572139 0.35581941780050386 -25.162830383392567 2.410394156236605 0.4313620573547408 -18.48076528911644 11.391296234531145 3.4196221336640074 -38.5782196247439 3.2048540502979312 1.329865133389909 -36.84036141578731 2.7028368057894676 1.2402561180721865 -34.840954009034164 10.80485030460541 2.7497615636450483 -34.1164870197577 3.6981487613051796 0.867993523438329 -34.918518093681556 2.28147269411428 0.4991635291913499 -23.89186745532448 7.534088520688619 0.6981104176921826 -26.584962235143824 3.9134291277409567 1.097359709531569 -38.092866459263945 1.9508075001403555 0.3698491211462463 -25.130075732262906 -1.323919787462025 -9.617923608132438 10.51508886945675 27.079835822518163 2.2676720021418837 -6.594269032897058 -8.891747782366268 -3.8229364167569138 -9.158481041717566 -3.0610729362569504 -6.076378508673813 1.0728634854688384 -10.040380600853506 7.432500835516501 -6.6345843192004645 -5.304395050377711 17.319448711147466 3.7542476592608005 -0.21249024124944318 3.91479366600338 2.2147556611856456 11.497692060399391 -6.018852104271025 -2.9979785264368712 0.2551641994448512 6.906262768820158 2.938216775958612 -0.024063111809533397 31.554895863373027 0.07840569861371209 1.116322912027469 -14.777139708447535 -4.4612666928288105
0.2805193364620209 0.8503267294604484 2.2752866744995117 5.491650606602118 7.086391546808908 1.9818189951073957 -0.2026957601619818 -2.1067026570128973 -1.7141626670838375 -0.7402340082121769 3.7983655564787666 0.06699030173536756 -6.041794320433714 -1.8301222808909308 -1.2206736862246506 3.431332716716562 -48.30011777727994 -19.796563487343583 0 0 0 0 0 0 0 0 0 14.044967468111885 -0.6332970959273795 20.255844665451622 7.257140882319319 -44.499970679962004 40.476300009091815 86.835203809042 0.6993128338362448 -0.7389851921547335 18.127127970633943 7.010125616156884 -27.900765263305715 -14.836956188403184 6.8152046408706735 47.725871874732746 -2.649838559581371 0.5012229630646303 34.16898971673341 -0.6767165314418115 -0.8518278466594388 28.42714407083961 -13.456772726607793 7.072837861441986 52.67296321181309 -3.0514826267045616 1.1741222164673975 34.10116485675833 -0.8687290564430066 0.007180509024379805 30.451682183335485 -12.835245801359324 5.296745433721238 43.89947221711252 -4.637893783168393 1.7453726954460198 50.677635702841215 -3.568668788553241 1.3495511712277661 43.163927360597896 -3.3201507024725303 -2.171489462281427 34.54946618817932 -3.9610793601441965 1.1544433667701313 39.32595085056967 -1.513395928046413 0.004495596415395151 30.027678990039988 0.9362967059177206 -28.143608667661514 -11.793125957739594 -7.784966426354635 -1.0464999421723167 -8.253885042299713 -29.070731970370385 -2.621256820228646 -0.5226756755995738 0.617501151089356 0.07184949344380694 2.1965448621784907 17.48545083644138 -54.47727696684098 -101.22440282112063 -115.51623729184591 1.0588728904215143 0.6680740055558692 -12.544712933194093 42.71545637751591 -7.804591970539108 15.186147693489335 9.221523781907672 -51.86833475243147 1.9372473081520496 0.3490949426468872 -24.956314187103658 2.39387575274302 0.42370461514009444 -18.27427067816134 11.427698243615342 3.4757695139123195 -38.94643477860673 3.206335446890701 1.3312636715528814 -36.86362788882509 2.7042803676910228 1.241529393184762 -34.86314149223992 10.883917601545713 2.82850319598606 -34.511925080122325 3.7045032026951206 0.8722377481141869 -35.00627696952429 2.2884368706873537 0.5025357971326702 -23.98069926796594 7.460657640439397 0.6923953163948356 -26.76950016508491 3.927307064800559 1.1082952672478772 -38.29302560067347 1.9674739097310943 0.37687289253774015 -25.33480639413764 -1.4536671864299888 -9.351056087480625 10.725823604693735 27.121410029691763 2.3787551786190204 -6.569687185218553 -8.623458577931366 -3.7344133970898965 -9.206062115318554 -3.01471596129535 -6.318524717874473 1.0962360433799372 -10.064986647179769 7.5468688420650425 -6.663917089204823 -5.634914384140061 17.37049478819495 3.5586634999968716 -0.22458213990963516 3.8797262096675618 2.311224757416896 11.38351011584937 -6.415677251202776 -3.0875121465360857 0.17717048573936572 7.206487006997238 2.959218014488655 0.006302301967321913 31.534434931340446 0.19454580437581492 1.1560885199484323 -14.34963179039166 -4.689734889954391
0.2699076533317566 0.8521272665698234 2.2678470611572266 5.71485042319869 7.134768313154613 2.0622641974268836 -0.20542272644302642 -2.1433496268008616 -1.7319914542757195 -0.7390868605296207 4.033908781121662 0.030184003652905442 -6.011058331706022 -1.8781124111520275 -1.2316480079649523 3.583566125422805 -48.478064987547526 -19.843948028631992 0 0 0 0 0 0 0 0 0 14.170331073710363 -0.6449135691560685 20.230471425473706 6.913983398878073 -44.69670961615942 40.647356550119085 87.02651764493312 0.701800862858749 -0.739116214895087 18.173574337753692 7.0874101971212164 -27.82381950912277 -14.819882597810132 6.79545387905605 47.70664028188252 -2.664990785443683 0.5089019415049919 34.36168713346653 -0.6964477864552899 -0.8516856776381803 28.6199822635537 -13.450636343308178 7.074694866588757 52.725733737077725 -3.058591577424425 1.1802386611174787 34.208618069516255 -0.8780116460054807 0.009871902074682937 30.559066695713312 -12.89377690622003 5.3477164763543374 43.858180256729256 -4.650083272722241 1.7594113511907725 50.89103971252511 -3.5821923764973493 1.3622861030385613 43.37682693294949 -3.3850459314115504 -2.122687434773431 34.496115015198 -3.9727732336093178 1.1640108981463708 39.4974625281941 -1.5284949574055038 0.009024214055418003 30.199371840532752 0.8984653586516814 -28.11780011723199 -11.963001188815044 -7.797970929171113 -0.9631786638425404 -8.304936385035784 -29.250020966543172 -2.873741109552678 -0.3166300214624882 0.4501296884194677 0.09705080463516014 1.97678232114212 17.87788196334495 -54.85714427701436 -101.60566752078026 -115.31624462297393 1.0565383822192407 0.6692031981609428 -13.018615548459618 42.64289570111492 -8.23851004653092 15.173194370723193 9.297650400861649 -52.232756759898564 1.9337265815130058 0.3476892583930787 -24.913152072481587 2.3900921604334813 0.42196340309536706 -18.226985827148884 11.453503494982495 3.519177454251952 -39.24564288291444 3.2073651741799316 1.332232325959595 -36.88012657003312 2.705306152793911 1.2424236109907631 -34.87893180151786 10.923761492625745 2.877904871312299 -34.8490535390831 3.705225470237261 0.8727210933970246 -35.01616090641479 2.2892111661843244 0.5029103513767553 -23.9905496132128 7.453378599337038 0.7360026329020553 -27.018825903264364 3.9315508082576143 1.1116540026927801 -38.35477079585282 1.9727193607312008 0.3790893905159003 -25.398956453411433 -1.520244112920996 -9.213400244577022 10.834757709954317 27.14296109836867 2.4362012457054383 -6.557158498165377 -8.484900601565291 -3.688491637438182 -9.230796454521483 -3.0008000170820974 -6.411796466452603 1.111679743526617 -10.063188253805665 7.552255032193683 -6.6798508801597745 -5.877357866870098 17.41640099869653 3.456627412865386 -0.23198154608882124 3.8732902531288698 2.363455181066399 11.294728673338359 -6.640354086034675 -3.139207563280078 0.10426800431243706 7.4105560143037135 2.9725661994390564 0.007919647438405874 31.472610523012317 0.20326276096170895 1.1556717349508976 -14.034014950196093 -4.748310538642851
